<svg width="169" height="72" viewBox="0 0 169 72" xmlns="http://www.w3.org/2000/svg"><title>logo</title><g id="Page-1" fill="none" fill-rule="evenodd"><g id="Desktop-HD"><g id="logo"><path id="Rectangle" fill="#FFFD0D" d="M0 0h169v72H0z"/><g id="Group" fill-rule="nonzero" fill="#231F20"><path d="M21.905 30.164l1.373-8.607h.056l1.373 8.607h-2.802zM21.15 17.56l-3.727 20.044h3.362l.617-4.442h3.81l.616 4.442h3.365l-3.73-20.043H21.15zM33.926 21.947h.057l3.138 15.658h1.685l3.14-15.658h.052v15.658h3.03V17.562h-4.57L37.99 29.275h-.056L35.47 17.562H30.9v20.043h3.026zM55.726 29.025h-.058l-4.23-11.464h-3.223v20.044h3.138v-12.52h.056l4.428 12.52h3.027V17.56h-3.14zM71.75 34.604H65.53V28.72h4.483v-3H65.53v-5.164h5.832V17.56h-9.308v20.045h9.7zM76.4 22.25c0-1.25.615-1.97 1.737-1.97.785 0 1.71.5 1.85 2.222l3.307-.36c-.308-2.834-1.99-4.86-4.822-4.86-3.42 0-5.378 1.804-5.378 4.997 0 5.75 7.06 6.802 7.06 10.77 0 1.196-.812 1.833-2.017 1.833-1.122 0-1.934-.998-2.076-3.027l-3.306.47c.14 3 1.99 5.553 5.216 5.553 3.25 0 5.493-1.832 5.493-5.134 0-5.44-7.064-7.078-7.064-10.495M87.447 37.605h3.476V20.558h3.364v-2.996H84.084v2.996h3.363zM100.968 25.194h-.054l-2.44-7.632h-3.533l4.207 11.713v8.33h3.476v-8.33l4.203-11.713h-3.53z" id="Shape"/><path id="Rectangle-path" d="M17.878 42.856h2.093v12.078H17.88z"/><path id="Shape" d="M21.81 54.934V42.856h1.94l2.55 6.908h.035v-6.908h1.892v12.078h-1.824l-2.67-7.546h-.03v7.546zM31.165 44.662h-2.027v-1.807h6.148v1.807H33.26v10.273h-2.095zM36.215 54.934V42.856h5.608v1.806h-3.515v3.113h2.703v1.805H38.31v3.547h3.75v1.807zM45.503 54.935H43.41v-12.08h2.938c1.17 0 2.055.273 2.652.82.596.546.895 1.462.895 2.743 0 .49-.042.91-.125 1.255-.086.347-.2.64-.338.878-.14.24-.3.435-.473.578-.176.146-.353.258-.534.337l1.773 5.47h-2.127l-1.488-5.004c-.135.025-.302.038-.5.042-.196.008-.388.01-.582.01v4.953zm.034-6.66h.743c.28 0 .52-.028.718-.083.196-.056.358-.155.48-.3.124-.147.215-.338.27-.58.056-.24.087-.538.087-.895 0-.713-.12-1.2-.356-1.463-.238-.263-.638-.393-1.2-.393h-.743v3.715zM51.55 54.934V42.856h1.942l2.55 6.908h.034v-6.908h1.892v12.078h-1.825l-2.67-7.546h-.03v7.546zM61.16 54.934h-2.03l2.248-12.078h2.6l2.248 12.078h-2.028l-.372-2.676H61.53l-.37 2.676zm.676-4.484h1.688l-.827-5.186h-.035l-.826 5.186zM68.1 44.662h-2.026v-1.807h6.148v1.807h-2.026v10.273H68.1z"/><path id="Rectangle-path" d="M73.353 42.856h2.093v12.078h-2.093z"/><path d="M77.12 45.783c0-.423.064-.825.193-1.204.13-.38.325-.71.592-.988.264-.28.596-.5.996-.66.4-.163.875-.243 1.428-.243.552 0 1.027.08 1.427.24.4.164.73.382.996.662.265.277.462.608.59.987.13.378.195.78.195 1.203v6.224c0 .424-.065.825-.194 1.203-.128.38-.325.71-.59.99-.263.276-.595.497-.995.658-.4.16-.875.243-1.427.243-.553 0-1.028-.08-1.427-.242-.398-.16-.73-.382-.995-.66-.267-.28-.463-.608-.592-.988-.13-.378-.193-.78-.193-1.203v-6.224zm2.093 6.173c0 .46.08.795.237 1.012.16.22.45.327.88.327.426 0 .72-.108.877-.327.157-.217.237-.553.237-1.012v-6.122c0-.458-.08-.795-.237-1.012-.16-.218-.45-.326-.878-.326-.43 0-.72.108-.88.326-.157.217-.237.554-.237 1.012v6.122zM85.135 54.934V42.856h1.942l2.55 6.908h.034v-6.908h1.894v12.078H89.73l-2.67-7.546h-.033v7.546zM94.583 54.934h-2.028l2.247-12.078h2.6l2.248 12.078h-2.028l-.372-2.676h-2.296l-.37 2.676zm.675-4.484h1.688l-.826-5.186h-.035l-.827 5.186zM100.547 54.934V42.856h2.096v10.27h3.29v1.808z" id="Shape"/></g><g id="Group" fill-rule="nonzero" fill="#231F20"><path d="M147.62 39.938c-.226-.097-.255-.796-.384-.796-.195 0-.296.636-.675.73-.39.066-.967-.413-1.13-.29-.163.133.363 1.038-.506 1.038-.26 0-.393-.293-.393-.515V33.15s.03-.008.42.087c.256.066.514.192.514.544 0 .19-.068.573.063.64.134.065.225-.067.29-.098 1.19-.86 1.482.668 1.74.668.226 0 .194-1.05.515-1.05.26-.1 2.738 1.084 2.738 1.85 0 .16-.324.19-.352.352-.032.225.58.318.48.734-.034.258-.61.575-.452.733.166.16.938-.16 1.003-.16.16 0 .188.253.188.35 0 1.406-3.315 2.46-4.06 2.138zm-8.826 1.113c-.193-.313-.098-.857-.29-.857-.096 0-.61.767-.903.767-.287 0-.77-.544-.964-.544-.13 0 .13.767-.13 1.083-.162.224-1.706.388-1.706.195v-10.85c0-.51.39-.703.74-.703l5.765-.002c.706 0 .997.22.997.955l.006 9.74c0 .316-3.387.444-3.514.216zm3.513 13.755c0 .672-.23.83-.806.704l-6.15-1.214c-.357-.062-.55-.287-.55-.668v-11.04c0-.288 1-.32 1.16-.193.29.256.193 1.18.384 1.18.26 0 .935-1.117 1.227-1.117.613 0 1.03.35 1.16.29.13-.067.13-.576.29-.705.224-.155.9-.155 1.255-.193.582-.032 1.645-.126 1.645-.126.42 0 .387.29.387.897v12.185zM135.67 22.77c0-4.403 6.573-6.923 7.023-9.157.483.447.547 1.18.547 1.82 0 2.678-4.702 7.178-4.702 10.432 0 .353.032.446.032.67 0 .318-.13.384-.19.384-.78 0-2.71-1.502-2.71-4.15zm-3.64 27.538c-.514 0-.837-1.023-.966-.987-.16.034.035.86-.16.988-.162.158-3.577-1.404-3.835-1.656-.228-.225.097-.542 0-.767-.065-.192-.583-.13-.74-.227-.13-.126.157-.704-.032-.828-.167-.097-.516.575-.743.252-.1-.128-.127-.35-.127-.636 0-1.947 2.09-2.743 3.51-3.222.578-.194.382.54.578.574.225.064.258-.35.516-.35.195 0 .937.35 1.095.222.13-.095-.385-.574-.225-.766.196-.16 1.69-.438 1.676-.058l.004 6.82c.002.714-.552.642-.552.642zm20.23-11.743c.355-.604.355-1.34.484-1.628.19-.317.9-.255.9-.478 0-.095-.514-.222-.71-.35-.382-.223-.253-1.372-.446-1.372-.294 0-.582.796-.874.447-.512-.64-2.64-1.853-3.605-2.203-.357-.127.257-1.18.097-1.278-.162-.096-.58.64-1.192.513-.484-.098-.258-.96-.516-.96-.13 0-.615 1.213-.97 1.116-.387-.095-.898-.233-.898-.233v-3.18c0-.542-.368-.963-.84-.96h-3.48c-.967 0-.903-.7-.903-.86 0-4.244 6.218-4.946 6.218-10.497 0-2.426-1.545-4.053-3.35-5.49-.1-.063 0 .352 0 .51 0 2.585-9.697 3.925-9.697 9.892 0 5.2 5.22 5.422 5.22 6.222 0 .16-.32.223-.353.223h-3.994c-.42 0-.783.256-.777.952l.004 3.197c-.39.127-.902-.448-1.162-.448-.13 0-.062.99-.29 1.12-.193.093-3.832 1.37-4.158 1.402-.51.095-.38-.798-.67-.798-.263 0-.263.893-.907.893-.385 0-.706-.354-.995-.354-.193 0 .417.736.417.958 0 .608-1.19.83-1.19 1.246 0 .223 1.125-.096 1.287-.096.58 0 .516.673.737.673.226 0 .386-.772.582-.896.383-.222.837.16 1.03.16.32 0-.257-.767.034-.895 0 0 3.926-1.656 4.187-1.53.225.13.195.51.45.64.257.125.647-.894.647-.258v7.82c-.453.283-1.42.447-1.937.447-.254 0-.13-.83-.29-.83-.258 0-.516.7-.902.7-.353 0-.867-.86-1.22-.86-.224 0 .416 1.083.03 1.275-1.484.735-3.833 1.437-3.833 3.762 0 .482.26 1.06.16 1.212-.094.228-.608.673-.58.864 0 .192.968.126 1.163.417.094.155.16.858.356.858.157 0 .576-.54.933-.35 1.123.672 3.088 1.402 3.993 1.886.22.127.094.827.22.89.26.13.774-.67 1.584-.224.162.066.322.32.322.608l-.005 2.61c0 .478.223.604.483.668l9.604 1.893s.853.19 1.142.19c.334.014.75-.002.725-.802l-.005-5.93c0-.06.077-.206.206-.206.564-.002.28 1.608.408 1.608.256 0 .418-1.085.743-1.085.45 0 .744.414.93.32.164-.096-.09-.61-.09-.93 0-.284.833-.412 1.866-.795.902-.315 1.643-.668 1.934-.668.224 0 .38.604.58.604.16 0 .19-.793.548-.793.287 0 .93.443 1.095.316.127-.094-.322-.702.03-.96.26-.16.87-.538.87-.7 0-.095-1.192-.13-1.256-.13-.225-.06-.483-.763-.648-.763-.187 0-.187.702-.48.924-.26.19-.902-.67-1.19-.67-.165 0 .19.64.19 1.152 0 .508-3.122 1.498-3.54 1.498-.647 0-.68-.798-.808-.798-.194 0-.188.975-.9.975-.357 0-.484-.262-.484-.452v-7.66c0-.22.065-.518.484-.536.53-.024.543 1.165.737 1.165.353 0 .548-1.18 1.223-1.18.516 0 .935.703 1.258.703.227 0-.384-.734-.384-1.087.002-.347 3.19-.22 4.415-2.358z" id="Shape"/></g></g></g></g></svg>
