<svg width="100" height="100" viewBox="0 0 100 100" xmlns="http://www.w3.org/2000/svg" xmlns:xlink="http://www.w3.org/1999/xlink"><title>text-bubbles</title><defs><path id="a" d="M74.973.44V62H.133V.44z"/><path id="c" d="M70.64.108H.453V36.44h70.19V.11z"/></defs><g fill="none" fill-rule="evenodd"><g transform="translate(25 37.892)"><mask id="b" fill="#fff"><use xlink:href="#a"/></mask><path d="M67.168 7.663l-6.64 31.827c-.11.553-.596.955-1.163.955l-10.64.016c-.565 0-1.052.417-1.163.97l-1.553 8c-.043.206-.337.28-.378.076l-1.758-8.393c-.113-.554-.6-.652-1.165-.652H15.49c-.563 0-1.05-.578-1.164-1.132L7.936 7.66c-.15-.735.415-1.188 1.165-1.188h56.904c.75 0 1.313.455 1.163 1.19m6.04-7.22H1.898C.778.44-.057 1.01.165 2.103l8.73 43.107c.168.822.89 1.27 1.73 1.27l28.412-.02c.752 0 1.42.395 1.666 1.105l4.838 14.255c.048.134.166.18.284.18.115 0 .232-.076.28-.207l5.055-14.17c.254-.696.915-1.162 1.656-1.162l11.443.007c.838 0 1.56-.59 1.727-1.412l8.948-42.95c.22-1.093-.615-1.664-1.73-1.664" fill="#020303" mask="url(#b)"/></g><path d="M27.313 60.946c-1.127 0-2.293-.054-3.463-.16-.488-.038-.937.27-1.06.744l-2.113 8.158-4.718-10.2c-.114-.246-.32-.434-.575-.524-8.257-2.93-13.384-8.57-13.384-14.718 0-9.208 11.354-16.7 25.313-16.7 9.62 0 18.003 3.56 22.284 8.788h2.453c-4.36-6.366-13.806-10.787-24.737-10.787-15.06 0-27.313 8.39-27.313 18.7C0 51.16 5.474 57.438 14.32 60.704l5.715 12.362c.165.356.52.58.907.58.03 0 .06-.002.09-.004.42-.038.773-.337.88-.745l2.604-10.053c.945.067 1.883.1 2.797.1.154 0 .306-.005.46-.007l-.404-1.993h-.058" fill="#020303"/><g transform="translate(29 -.108)"><mask id="d" fill="#fff"><use xlink:href="#c"/></mask><path d="M2.98 23.907c.74.08 1.466.183 2.184.3l-2.38-7.8 9.242-.468c.532-.028.95-.467.95-1V3.87L23 11.452c.222.17.505.236.78.187.274-.05.516-.21.667-.446l5.484-8.576 7.528 6.496c.334.29.817.324 1.19.086l9.425-6.002 2.758 11.15c.13.515.643.842 1.155.742l14.98-2.803-6.28 13.057c-.204.423-.086.93.282 1.22l7.263 5.706-3.338 4.17h2.56l2.97-3.708c.166-.208.244-.474.212-.74-.03-.265-.166-.506-.375-.67l-7.425-5.834 6.788-14.114c.163-.34.122-.742-.108-1.042-.228-.298-.607-.446-.977-.374L52.545 12.95 49.68 1.367c-.077-.313-.3-.57-.6-.688-.296-.122-.635-.09-.908.084l-9.97 6.35L30.363.35c-.22-.19-.512-.272-.798-.233-.287.042-.542.207-.698.452l-5.524 8.635L12.58 1.06c-.304-.23-.71-.266-1.05-.098-.34.17-.554.516-.554.895V13.99l-9.574.483c-.307.016-.59.172-.768.424-.177.253-.228.572-.138.867l2.485 8.143z" fill="#020303" mask="url(#d)"/></g></g></svg>
