<svg width="100" height="69" viewBox="0 0 100 69" xmlns="http://www.w3.org/2000/svg" xmlns:xlink="http://www.w3.org/1999/xlink"><title>missing-people</title><defs><path id="a" d="M.243 7h9.684V.37H.243z"/><path id="c" d="M10.388 7H.704V.37h9.684V7z"/></defs><g fill="none" fill-rule="evenodd"><path d="M46.735 5.688c.194.46.7.706 1.18.57 1.26-.358 2.574-.343 3.797 0 .482.138.988-.106 1.183-.567l1.562-3.7c.23-.545-.062-1.166-.623-1.348C51.27-.193 48.458-.232 45.8.635c-.564.183-.858.803-.628 1.348l1.563 3.705zM54.69 7.963c.454.44.855.952 1.187 1.527.333.576.574 1.18.73 1.793.12.48.587.785 1.078.723l3.995-.5c.586-.072.98-.633.856-1.21-.276-1.305-.76-2.59-1.462-3.806-.703-1.217-1.573-2.277-2.564-3.17-.44-.394-1.122-.334-1.478.137l-2.43 3.21c-.298.394-.268.952.087 1.296M38.557 19.49c.703 1.217 1.572 2.277 2.563 3.17.44.393 1.122.334 1.48-.137l2.428-3.21c.3-.394.27-.95-.087-1.296-.453-.44-.855-.952-1.187-1.527-.332-.576-.573-1.18-.728-1.793-.12-.48-.59-.785-1.08-.724l-3.994.5c-.585.073-.978.635-.856 1.212.277 1.304.76 2.588 1.463 3.805M37.968 11.51l3.986.497c.498.063.96-.254 1.084-.74.313-1.232.958-2.376 1.897-3.29.358-.348.398-.908.097-1.306l-2.427-3.204c-.357-.473-1.04-.528-1.48-.132-2.082 1.87-3.453 4.323-4.013 6.962-.123.577.27 1.14.856 1.213M57.025 22.514c.357.472 1.042.527 1.48.13 2.083-1.868 3.454-4.322 4.013-6.96.123-.578-.27-1.14-.855-1.213l-3.987-.498c-.497-.062-.96.254-1.084.74-.313 1.232-.957 2.376-1.897 3.29-.358.348-.398.908-.096 1.306l2.425 3.206zM51.717 19.722c-1.26.357-2.575.343-3.798-.002-.483-.136-.99.107-1.184.57l-1.56 3.7c-.23.544.06 1.165.62 1.348 2.566.835 5.377.874 8.036.007.563-.184.857-.804.627-1.35l-1.564-3.703c-.194-.46-.7-.706-1.18-.57M77.735 12.685c.194.46.7.706 1.18.57 1.26-.358 2.574-.343 3.797 0 .482.138.988-.105 1.183-.567.233-.55-.066-1.192-.64-1.355-1.57-.442-3.255-.46-4.874-.005-.577.163-.878.804-.645 1.357zM73.02 24.486c.425.733.936 1.386 1.514 1.948.428.418 1.132.355 1.493-.122v-.002c.3-.394.27-.95-.086-1.296-.453-.44-.855-.95-1.187-1.527-.332-.576-.573-1.18-.728-1.792-.12-.48-.588-.787-1.08-.724h-.003c-.593.075-1 .652-.852 1.233.2.782.508 1.55.93 2.284M86.878 16.486c.333.576.574 1.18.728 1.793.12.48.59.784 1.08.723h.003c.592-.075 1-.652.85-1.233-.198-.782-.506-1.55-.93-2.284-.423-.732-.935-1.385-1.513-1.947-.428-.42-1.132-.356-1.492.12l-.002.002c-.3.395-.268.952.087 1.297.454.44.856.95 1.188 1.526M83.896 27.288c-.194-.46-.7-.706-1.18-.57-1.26.358-2.574.343-3.797-.002-.483-.136-.99.107-1.184.57-.233.55.065 1.19.64 1.354 1.57.442 3.255.46 4.874.005.577-.163.88-.804.646-1.357zM72.955 19.004c.498.062.96-.255 1.084-.74.31-1.232.957-2.377 1.896-3.29.358-.348.398-.908.097-1.306-.363-.48-1.07-.538-1.498-.12-1.205 1.174-2.03 2.643-2.432 4.223-.148.58.258 1.16.852 1.234M85.6 26.305c.36.48 1.067.538 1.497.12 1.204-1.175 2.03-2.644 2.432-4.224.146-.58-.26-1.157-.854-1.23-.497-.063-.96.253-1.084.74-.312 1.23-.957 2.375-1.897 3.29-.358.347-.397.907-.096 1.305M15.735 12.685c.194.46.7.706 1.18.57 1.26-.358 2.574-.343 3.797 0 .482.138.988-.105 1.183-.567.233-.55-.066-1.192-.64-1.355-1.57-.442-3.255-.46-4.874-.005-.577.163-.878.804-.645 1.357zM11.02 24.486c.425.733.936 1.386 1.514 1.948.428.418 1.132.355 1.493-.122v-.002c.3-.394.27-.95-.086-1.296-.453-.44-.855-.95-1.187-1.527-.332-.576-.573-1.18-.728-1.792-.12-.48-.588-.787-1.08-.724h-.003c-.593.075-1 .652-.852 1.233.2.782.508 1.55.93 2.284M24.878 16.486c.333.576.574 1.18.728 1.793.12.48.59.784 1.08.723h.003c.592-.075 1-.652.85-1.233-.198-.782-.506-1.55-.93-2.284-.423-.732-.935-1.385-1.513-1.947-.428-.42-1.132-.356-1.492.12l-.002.002c-.3.395-.268.952.087 1.297.454.44.856.95 1.188 1.526M16.378 28.64c1.568.442 3.254.46 4.872.005.578-.163.88-.803.647-1.356v-.002c-.195-.46-.7-.705-1.18-.57-1.26.358-2.575.344-3.797 0-.483-.137-.99.106-1.184.568-.232.55.066 1.19.642 1.354M10.955 19.004c.498.062.96-.255 1.084-.74.31-1.232.957-2.377 1.896-3.29.358-.348.398-.908.097-1.306-.363-.48-1.07-.538-1.498-.12-1.205 1.174-2.03 2.643-2.432 4.223-.148.58.258 1.16.852 1.234M23.6 26.305c.36.48 1.067.538 1.497.12 1.204-1.175 2.03-2.644 2.432-4.224.146-.58-.26-1.157-.854-1.23-.497-.063-.96.253-1.084.74-.312 1.23-.957 2.375-1.897 3.29-.358.347-.397.907-.096 1.305M93.865 34.293c.752.247 1.238.818 1.517 2.262 0 0 .217.883 1.115.748s.85-1.12.85-1.12c-.405-2.097-1.316-3.306-2.905-3.804-.52-.165-1.057.218-1.124.76l-.025.204c-.05.41.18.82.572.95M97.85 44.88l.198-.038c.49-.09.81-.56.72-1.05l-.73-3.904c-.09-.49-.56-.81-1.048-.72l-.198.037c-.488.09-.81.56-.72 1.05l.73 3.904c.09.488.56.81 1.05.72M85.62 33v.2c0 .496.404.9.9.9h3.974c.496 0 .9-.404.9-.9V33c0-.498-.404-.9-.9-.9H86.52c-.496 0-.9.402-.9.9M99.434 47.363s-.355-.78-1.17-.604c-.815.174-.792.99-.792.99.108.524.16.934.16 1.293 0 .66-.172 1.172-.554 1.61-.29.33-.352.798-.1 1.156l.115.162c.32.454.99.53 1.37.125.776-.827 1.168-1.85 1.168-3.054 0-.5-.063-1.04-.196-1.68M82.797 32.1h-3.972c-.498 0-.9.402-.9.9v.2c0 .496.403.9.9.9h3.972c.498 0 .9-.404.9-.9V33c0-.498-.403-.9-.9-.9M90.334 41.755c-.538.13-.868.67-.74 1.207l.235.97c.128.538.668.87 1.205.74.537-.128.868-.668.74-1.206l-.235-.97c-.13-.538-.67-.87-1.206-.74M86.493 51.422c-.207-.512-.793-.758-1.3-.553-.513.206-.76.79-.554 1.3l1.42 3.517c.157.39.53.626.926.626.125 0 .252-.024.374-.074.513-.208.76-.79.553-1.302l-1.42-3.516zM94.524 52.303l-4.782 1.932c-.512.207-.76.79-.552 1.3.157.39.53.627.927.627.125 0 .252-.024.375-.073l4.782-1.933c.512-.207.76-.79.552-1.3-.207-.513-.79-.76-1.302-.554M92.51 46.248c-.302-.464-.922-.594-1.385-.294l-3.86 2.507c-.464.303-.596.922-.295 1.385.19.295.513.455.84.455.186 0 .376-.052.544-.16l3.86-2.51c.464-.3.596-.92.295-1.382M9.137 34.1h3.973c.496 0 .9-.404.9-.9V33c0-.498-.404-.9-.9-.9H9.137c-.497 0-.9.402-.9.9v.2c0 .496.403.9.9.9M2.84 39.205l-.198-.037c-.49-.09-.96.23-1.05.72l-.73 3.905c-.09.488.232.958.72 1.05l.198.036c.49.09.96-.232 1.05-.72l.73-3.905c.09-.488-.232-.96-.72-1.05M2 49.043c0-.358.05-.77.16-1.292 0 0 .022-.815-.793-.99-.814-.176-1.17.603-1.17.603-.133.64-.197 1.18-.197 1.68 0 1.204.392 2.228 1.167 3.054.38.405 1.05.33 1.37-.125l.116-.163c.252-.36.188-.826-.1-1.156-.383-.44-.553-.95-.553-1.61M3.134 37.302c.898.135 1.115-.748 1.115-.748.278-1.443.763-2.015 1.516-2.262.393-.13.623-.538.572-.95l-.025-.204c-.067-.54-.604-.923-1.124-.76-1.59.5-2.5 1.708-2.906 3.803 0 0-.047.987.85 1.122M21.706 33.2V33c0-.498-.403-.9-.9-.9h-3.973c-.497 0-.9.402-.9.9v.2c0 .496.403.9.9.9h3.973c.497 0 .9-.404.9-.9M8.595 44.672c.538.13 1.078-.2 1.207-.738l.233-.972c.13-.537-.2-1.077-.738-1.206-.538-.13-1.078.2-1.207.738l-.234.972c-.13.537.202 1.077.74 1.206M14.495 50.87c-.508-.206-1.094.04-1.3.552l-1.42 3.515c-.208.513.04 1.095.552 1.302.122.048.25.072.374.072.397 0 .77-.236.928-.626l1.42-3.515c.207-.51-.04-1.094-.553-1.3M9.946 54.235l-4.782-1.932c-.513-.205-1.095.04-1.302.553-.207.512.04 1.095.552 1.302l4.782 1.93c.123.05.25.075.375.075.397 0 .77-.237.928-.626.207-.512-.04-1.095-.552-1.302M12.718 49.844c.3-.463.17-1.082-.294-1.383l-3.86-2.507c-.464-.3-1.084-.17-1.385.294-.302.463-.17 1.082.293 1.384l3.86 2.508c.17.11.36.162.545.162.327 0 .65-.16.84-.456M60.242 59.523l2.33-1.618c.453-.316.565-.94.25-1.393l-2.067-2.964c-.315-.453-.938-.565-1.39-.25l-2.895 2.014c-1.252.926-2 2.41-2 3.967 0 .655.128 1.295.38 1.9l.21.536s.244.61.907.332c.664-.277 3.225-1.36 3.91-1.63.682-.272.365-.895.365-.895M68.557 51.118c0-.392-.047-.78-.137-1.155l-1.243-5.167c-.13-.537-.67-.867-1.206-.738l-3.512.845c-.537.13-.867.67-.738 1.207l1.135 4.716s-.722.53-.29 1.147c.43.62 2.185 3.14 2.185 3.14.31.446.922.562 1.375.26l.433-.288c1.252-.926 2-2.41 2-3.967" fill="#221E1F"/><g transform="translate(56 61.26)"><mask id="b" fill="#fff"><use xlink:href="#a"/></mask><path d="M8.363.96C8.137.457 7.546.23 7.043.456l-1.586.707S5.21.595 4.59.86C3.966 1.128 1.31 2.23.664 2.5c-.646.27-.358.89-.358.89l.237.576C1.314 5.808 3.102 7 5.1 7c.69 0 1.364-.143 2-.425.645-.287 1.41-.627 2.233-.995.504-.225.733-.82.508-1.323L8.364.96z" fill="#221E1F" mask="url(#b)"/></g><path d="M77.413 58.03l-3.433-1.38c-.38-.154-.828-.077-1.105.227-.226.248-.6.554-1.235.877-.74.377-2.148 1.04-4.098 1.93-.5.23-.726.823-.498 1.325l1.494 3.288c.228.504.826.724 1.33.495 2.046-.935 3.497-1.62 4.317-2.037 1.672-.85 2.92-1.953 3.724-3.286.315-.524.07-1.21-.497-1.44M76.114 44.494l-3.55.663c-.544.1-.902.623-.8 1.166 0 0 1.003 5.364 1.404 7.568.093.52.573.873 1.097.812l3.59-.414c.572-.066.972-.598.87-1.166-.424-2.36-1.444-7.828-1.444-7.828-.1-.543-.623-.9-1.166-.8M43.16 55.312L40.268 53.3c-.453-.317-1.076-.205-1.39.248l-2.067 2.964c-.316.453-.204 1.077.25 1.393l2.33 1.618s-.32.623.365.894c.684.27 3.245 1.354 3.908 1.63.664.278.908-.33.908-.33l.21-.538c.252-.605.38-1.245.38-1.9 0-1.56-.747-3.042-2-3.968M34.882 55.113l2.186-3.14c.43-.617-.29-1.147-.29-1.147l1.133-4.716c.13-.537-.2-1.077-.736-1.206l-3.514-.846c-.536-.13-1.076.2-1.205.74l-1.244 5.166c-.09.373-.137.763-.137 1.154 0 1.558.747 3.04 2 3.967l.434.29c.453.3 1.064.185 1.375-.262" fill="#221E1F"/><g transform="translate(33 61.26)"><mask id="d" fill="#fff"><use xlink:href="#c"/></mask><path d="M9.966 2.498C9.32 2.228 6.663 1.126 6.042.86c-.62-.265-.868.303-.868.303L3.59.456C3.084.23 2.492.456 2.267.96L.79 4.257c-.225.504.004 1.097.51 1.323.822.368 1.586.708 2.23.995.637.282 1.31.425 2.002.425 1.997 0 3.785-1.192 4.555-3.036l.237-.576s.288-.62-.358-.89" fill="#221E1F" mask="url(#d)"/></g><path d="M32.089 59.685c-1.952-.89-3.36-1.554-4.1-1.93-.633-.323-1.008-.63-1.234-.878-.276-.303-.726-.38-1.105-.228l-3.432 1.38c-.57.23-.813.917-.497 1.44.806 1.334 2.053 2.435 3.725 3.286.82.418 2.27 1.102 4.319 2.037.503.23 1.1.01 1.33-.494l1.492-3.29c.23-.503.004-1.096-.497-1.325M25.366 54.702c.523.06 1.003-.292 1.098-.81.4-2.205 1.404-7.57 1.404-7.57.102-.542-.256-1.064-.8-1.165l-3.55-.663c-.544-.1-1.066.257-1.168.8 0 0-1.02 5.47-1.444 7.828-.102.568.297 1.1.87 1.166l3.59.414zM33.213 35.29l7.77-.004c.553 0 1-.448 1-1v-3.612c0-.553-.447-1-1-1 0 0-5.542.002-7.89.006-.563.002-1.01.468-.992 1.032l.117 3.61c.017.54.455.97.996.97M24.06 41.533l3.552.663c.543.1 1.065-.257 1.167-.8l.683-3.674c.187-.964.424-1.484.63-1.772.217-.302.258-.69.096-1.023l-1.645-3.41c-.267-.554-.976-.752-1.476-.394-1.596 1.142-2.62 2.966-3.12 5.55l-.69 3.693c-.1.543.258 1.066.8 1.167M54.756 30.674c0-.553-.447-1-1-1H45.93c-.55 0-1 .447-1 1v3.61c0 .555.45 1.002 1 1.002h7.826c.553 0 1-.447 1-1v-3.613zM57.704 30.674v3.61c0 .555.448 1.002 1 1.002 0 0 5.49.002 7.76.005.538.002.976-.422.996-.96l.136-3.61c.02-.566-.426-1.037-.992-1.038-2.354-.006-7.9-.008-7.9-.008-.552 0-1 .447-1 1M70.154 37.703l.7 3.756c.102.542.624.9 1.167.8l3.552-.664c.543-.1.9-.623.8-1.166l-.704-3.775c-.488-2.522-1.483-4.323-3.027-5.468-.492-.366-1.204-.178-1.48.37l-1.698 3.38c-.168.336-.13.727.085 1.035.2.288.427.8.607 1.73" fill="#221E1F"/></g></svg>
