<svg width="100" height="100" viewBox="0 0 100 100" xmlns="http://www.w3.org/2000/svg" xmlns:xlink="http://www.w3.org/1999/xlink"><title>scale-w-people</title><defs><path id="a" d="M34 27.585v-27H0v27h34z"/></defs><g fill="none" fill-rule="evenodd"><path d="M83 28.952l11.968 36.634h2.107L83.955 25.29c-.13-.42-.518-.704-.955-.704-.437 0-.825.284-.955.703l-13.12 40.296h2.107L83 28.952z" fill="#020303"/><path d="M85.557 55.14c0 1.41-1.147 2.556-2.557 2.556s-2.556-1.147-2.556-2.557S81.59 52.58 83 52.58c1.41 0 2.557 1.147 2.557 2.557m-7.11 0c0 2.514 2.04 4.552 4.553 4.552 2.515 0 4.554-2.038 4.554-4.553 0-2.516-2.04-4.554-4.554-4.554-2.514 0-4.553 2.038-4.553 4.553" fill="#020303"/><g transform="translate(66 60)"><mask id="b" fill="#fff"><use xlink:href="#a"/></mask><path d="M24.558 7.586h-1.47l-.073-.3-.41-1.7-.04-.167c-.085-.358-.444-.578-.8-.492l-.648.156c-.255.06-.434.263-.488.502-.023.097-.03.197-.005.3l.337 1.4.072.3h-8.07l.073-.3.336-1.4c.025-.103.02-.203-.003-.3-.054-.24-.233-.44-.488-.502l-.647-.156c-.357-.086-.717.134-.802.49l-.04.168-.41 1.7-.072.3H9.44l.374-2 .404-2.155c.15-.768.28-.844 1.176-.844h11.21c.896 0 1.028.076 1.176.84l.404 2.16.374 2zm3.026 6c-1.31 4.612-5.558 8-10.584 8s-9.275-3.388-10.584-8h21.168zm-4.98-13H11.393c-1.235 0-2.71.263-3.137 2.47l-.472 2.53-.374 2H1c-.552 0-1 .448-1 1v1.55c0 .042.006.083.006.125.004.55.03 1.095.083 1.632.02.204.063.402.09.605.052.37.096.745.17 1.11.045.22.113.436.167.655.082.337.156.677.258 1.006.07.226.16.443.24.665.11.313.21.63.338.933.094.224.207.437.31.656.136.292.264.588.415.872.115.215.25.42.373.63.162.272.315.55.49.813.136.207.29.4.435.6.183.253.358.51.554.753.154.192.326.37.49.556.203.233.402.472.618.694.173.178.362.34.542.51.224.21.443.428.677.627.192.163.398.31.596.464.24.187.476.38.725.553.21.146.43.273.647.41.254.16.504.327.766.474.227.126.464.233.695.35.268.133.53.273.805.393.24.104.49.188.735.282.278.105.554.218.838.31.254.08.516.14.775.208.287.076.573.16.866.22.266.056.54.09.81.13.295.047.588.1.888.13.277.027.558.03.838.045.35.017.695.045 1.05.04 1.154-.02 2.28-.156 3.37-.395 2.177-.48 4.2-1.378 5.978-2.606.888-.614 1.716-1.31 2.472-2.078.756-.768 1.44-1.607 2.04-2.505.9-1.348 1.612-2.832 2.1-4.414.162-.526.3-1.064.41-1.612.223-1.095.34-2.228.34-3.388v-2c0-.552-.448-1-1-1h-6.41l-.374-2-.475-2.536C25.317.85 23.84.586 22.605.586z" fill="#020303" mask="url(#b)"/></g><path d="M17 41.366L28.968 78h2.107l-13.12-40.297c-.13-.42-.518-.703-.955-.703-.437 0-.825.284-.955.703L2.925 78h2.107L17 41.366z" fill="#020303"/><path d="M19.557 67.553c0 1.41-1.147 2.557-2.557 2.557s-2.556-1.147-2.556-2.557S15.59 64.996 17 64.996c1.41 0 2.557 1.147 2.557 2.557m-7.11 0c0 2.515 2.04 4.553 4.553 4.553 2.515 0 4.554-2.038 4.554-4.553S19.514 63 17 63c-2.514 0-4.553 2.038-4.553 4.553M24.558 80h-1.47l-.073-.302-.41-1.698-.04-.167c-.085-.357-.444-.577-.8-.49l-.648.155c-.255.06-.434.263-.488.502-.023.097-.03.197-.005.3l.337 1.398.072.302h-8.07l.073-.302.336-1.398c.025-.103.02-.203-.003-.3-.054-.24-.233-.44-.488-.502l-.647-.156c-.357-.086-.717.134-.802.49l-.04.168-.41 1.698-.072.302H9.44l.374-2 .404-2.155c.15-.77.28-.845 1.176-.845h11.21c.896 0 1.028.076 1.176.838L24.184 78l.374 2zm3.026 6c-1.31 4.612-5.558 8-10.584 8s-9.275-3.388-10.584-8h21.168zm-4.98-13H11.393c-1.235 0-2.71.263-3.137 2.47L7.784 78l-.374 2H1c-.552 0-1 .448-1 1v1.55c0 .042.006.083.006.125.004.548.03 1.093.083 1.63.02.205.063.403.09.606.052.372.096.745.17 1.11.045.222.113.437.167.656.082.337.156.677.258 1.006.07.226.16.443.24.665.11.313.21.63.338.933.094.224.207.437.31.656.136.292.264.588.415.87.115.217.25.42.373.63.162.274.315.552.49.815.136.208.29.4.435.6.183.253.358.51.554.753.154.193.326.37.49.557.203.233.402.47.618.694.173.177.362.34.542.51.224.21.443.428.677.627.192.164.398.31.596.464.24.187.476.38.725.553.21.145.43.273.647.41.254.16.504.327.766.474.227.127.464.234.695.35.268.134.53.274.805.393.24.105.49.19.735.282.278.106.554.22.838.31.254.08.516.14.775.21.287.075.573.16.866.22.266.055.54.088.81.13.295.046.588.1.888.13.277.026.558.03.838.043.35.017.695.045 1.05.04 1.73-.03 3.402-.32 4.973-.83 1.047-.343 2.05-.784 2.997-1.313.473-.264.933-.55 1.378-.857 3.11-2.15 5.474-5.307 6.612-8.998.162-.527.3-1.065.41-1.612.223-1.096.34-2.228.34-3.388v-2c0-.552-.448-1-1-1h-6.41l-.374-2-.475-2.536c-.424-2.2-1.9-2.464-3.136-2.464zM50 10c-1.103 0-2-.897-2-2s.897-2 2-2 2 .897 2 2-.897 2-2 2m0-10c-4.41 0-8 3.59-8 8s3.59 8 8 8 8-3.59 8-8-3.59-8-8-8M90.847 21.023c-.105-.542-.63-.896-1.173-.79l-36.34 7.062c.786.707 1.36 1.654 1.574 2.75.21 1.082.044 2.17-.433 3.14l36.344-7.063c.54-.106.895-.63.79-1.173l-.763-3.927zM45.092 31.954c-.215-1.11-.028-2.197.435-3.14L9.18 35.877c-.54.106-.895.63-.79 1.173l.764 3.927c.105.542.63.896 1.172.79l36.34-7.063c-.786-.707-1.36-1.653-1.574-2.75" fill="#020303"/><path d="M52.487 32.677c-.448.665-1.128 1.115-1.915 1.268-1.61.312-3.207-.777-3.518-2.373-.315-1.624.75-3.2 2.373-3.517.19-.037.385-.056.578-.056 1.43 0 2.666 1.02 2.94 2.427.152.787-.01 1.586-.458 2.25m2.42-2.63c-.212-1.1-.787-2.045-1.572-2.752-.108-.097-.22-.19-.335-.277V11.416h-6v15.61c-.628.474-1.13 1.086-1.474 1.787-.463.944-.65 2.03-.435 3.14.215 1.098.79 2.044 1.574 2.75.893.806 2.062 1.297 3.33 1.297.32 0 .643-.03.96-.093 1.31-.254 2.444-1.004 3.19-2.11.132-.196.23-.404.33-.61.478-.973.644-2.06.433-3.14" fill="#020303"/></g></svg>
