<svg width="99" height="84" viewBox="0 0 99 84" xmlns="http://www.w3.org/2000/svg"><title>gender-symbols</title><g fill="#1D1C1A" fill-rule="evenodd"><path d="M95.268 49.08c-.207-.513-.79-.76-1.302-.554l-4.54 1.835-2.905-7.188c4.398-2.476 7.852-6.29 9.856-11.013 2.4-5.656 2.455-11.908.154-17.604-.26-.645-.555-1.27-.867-1.88-.095-.182-.196-.36-.294-.54-.24-.44-.492-.87-.756-1.288-.112-.176-.22-.352-.337-.525-.345-.515-.707-1.015-1.09-1.497-.034-.043-.065-.09-.1-.133-.442-.55-.912-1.07-1.4-1.573-.072-.074-.148-.145-.22-.217-.45-.45-.914-.878-1.396-1.287-.056-.05-.113-.098-.17-.146-2.842-2.363-6.233-4.022-9.92-4.797-.134-.03-.27-.05-.407-.077-.5-.096-1.005-.176-1.515-.24-.255-.03-.51-.062-.764-.085-.41-.036-.824-.056-1.24-.07-.273-.012-.546-.03-.82-.032H75.2c-.125 0-.246.015-.37.016-.598.01-1.196.03-1.793.086-.245.024-.486.072-.73.103-.48.06-.96.116-1.437.21-.427.08-.846.2-1.268.306-.294.073-.592.13-.885.216-.717.212-1.427.458-2.128.74-.654.265-1.285.562-1.904.88-.233.12-.457.253-.685.38-.365.205-.73.412-1.08.635-.286.18-.564.37-.84.56-.263.184-.52.372-.775.565-.318.24-.63.485-.934.74-.158.135-.31.276-.464.415-1.736 1.546-3.226 3.35-4.43 5.37-.532.897-1.028 1.82-1.442 2.795-.925 2.178-1.493 4.444-1.72 6.732-.057.563-.085 1.127-.1 1.692-.006.24-.008.478-.006.72.004.58.022 1.16.07 1.74.014.163.038.327.056.49.054.518.126 1.034.216 1.548.03.16.052.322.084.483.123.622.274 1.24.448 1.853.04.142.085.284.13.426.196.644.412 1.286.668 1.918 1.775 4.393 4.773 8.002 8.512 10.508.97-1.914 1.54-4.06 1.605-6.335-1.954-1.714-3.53-3.888-4.554-6.42-.197-.487-.365-.982-.515-1.48-.104-.346-.186-.697-.266-1.048-.032-.133-.07-.265-.097-.398-.092-.452-.166-.908-.22-1.364-.004-.023-.008-.045-.01-.067-.057-.485-.094-.97-.11-1.458-.08-2.437.35-4.883 1.332-7.195.43-1.013.952-1.967 1.552-2.86.103-.156.22-.302.327-.453.18-.25.365-.5.558-.74.135-.167.276-.33.417-.492.194-.222.395-.44.6-.65.138-.143.274-.286.416-.423.34-.326.688-.642 1.053-.938.08-.065.167-.122.248-.186.314-.245.636-.48.968-.703.14-.095.284-.184.427-.275.3-.188.606-.368.92-.538.137-.075.273-.152.413-.224.45-.23.907-.446 1.38-.637.52-.21 1.044-.39 1.573-.548.214-.063.433-.105.65-.16.313-.08.626-.167.943-.228.326-.063.655-.1.983-.144.208-.027.414-.067.623-.086.407-.04.82-.05 1.23-.06.132-.003.262-.016.393-.016.193 0 .382.015.574.02.317.013.634.028.95.057.183.017.364.04.545.06.383.05.766.107 1.147.182.092.018.186.033.278.053 1.058.226 2.102.552 3.12.984 1.545.656 2.96 1.523 4.22 2.565l.123.104c.36.302.703.62 1.035.952.053.055.11.106.163.162.36.37.707.757 1.033 1.16.03.035.054.072.08.107.282.353.547.72.8 1.098.087.13.17.26.252.393.195.308.38.623.554.945.074.136.15.27.22.407.23.45.45.912.64 1.387 1.702 4.21 1.662 8.83-.113 13.01-1.773 4.18-5.07 7.42-9.28 9.12-2.04.825-4.182 1.244-6.362 1.244-.544 0-1.08-.035-1.615-.085-.377 2.04-1.002 3.992-1.843 5.827 1.132.17 2.287.258 3.46.258 1.95 0 3.87-.27 5.745-.76l2.905 7.19-4.54 1.835c-.512.207-.76.79-.553 1.302l1.498 3.71c.207.51.79.76 1.302.552l4.54-1.835 2.236 5.533c.207.512.79.76 1.3.553l3.71-1.5c.513-.206.76-.79.553-1.3l-2.236-5.534 4.54-1.834c.512-.207.76-.79.553-1.302l-1.5-3.71zM23.006 40.01c-2.18 0-4.32-.418-6.362-1.243-4.21-1.7-7.506-4.94-9.28-9.12-1.774-4.18-1.815-8.8-.113-13.01.193-.476.41-.937.64-1.388.072-.138.147-.27.22-.406.176-.322.36-.638.556-.946.083-.132.165-.263.252-.392.253-.378.518-.746.8-1.1.026-.034.05-.07.078-.104.326-.404.672-.79 1.034-1.162.053-.055.11-.107.163-.16.332-.332.675-.65 1.033-.953l.125-.105c1.26-1.042 2.674-1.91 4.22-2.566 1.02-.432 2.065-.758 3.124-.984.088-.018.177-.033.264-.05.388-.076.777-.135 1.168-.184.175-.022.35-.044.527-.06.326-.03.653-.045.98-.056.182-.007.363-.02.547-.02.15 0 .3.014.452.018.392.01.784.02 1.173.056.23.022.458.064.686.096.31.042.617.075.922.134.336.065.67.157 1.003.243.197.05.396.086.592.145.53.156 1.055.338 1.574.548.49.198.96.422 1.42.66.142.072.278.15.415.225.326.18.643.367.952.565.138.088.277.175.412.267.363.248.715.508 1.055.78.053.043.11.082.163.124.375.31.73.636 1.075.973.128.125.25.255.373.383.222.232.438.47.647.713.123.144.247.288.365.436.225.28.436.568.642.86.076.11.16.212.232.322 1.962 2.94 2.972 6.457 2.85 10.045-.015.467-.05.934-.104 1.402l-.02.147c-.052.422-.12.844-.203 1.265-.034.168-.08.335-.12.503-.072.318-.146.637-.24.953-.147.494-.313.985-.51 1.472l-.01.033c-1.055 2.61-2.7 4.837-4.736 6.576.06 2.262.623 4.397 1.583 6.305 3.832-2.51 6.91-6.164 8.715-10.634.166-.41.315-.82.456-1.234.042-.124.078-.25.118-.373.095-.297.186-.595.27-.894.035-.133.07-.265.103-.397.08-.306.15-.612.217-.92.024-.11.048-.223.07-.336.074-.37.138-.74.192-1.11.007-.046.015-.09.02-.136.19-1.337.256-2.676.208-4.003v-.025c-.165-4.455-1.626-8.762-4.157-12.384l-.046-.065c-.684-.97-1.443-1.89-2.275-2.75-.028-.027-.054-.056-.08-.085-.403-.41-.822-.807-1.256-1.19l-.16-.135c-.87-.75-1.803-1.442-2.797-2.064l-.236-.15c-.476-.29-.966-.563-1.468-.82-.096-.05-.19-.095-.286-.142-.523-.26-1.056-.506-1.605-.73-.702-.28-1.41-.527-2.127-.74-.32-.094-.643-.156-.965-.236-.395-.1-.787-.21-1.186-.287-.51-.1-1.023-.16-1.536-.223-.21-.026-.417-.068-.628-.088-.63-.06-1.26-.083-1.89-.09C23.207.01 23.114 0 23.02 0h-.025c-.288 0-.575.022-.863.033-.4.015-.798.034-1.193.07-.264.024-.528.055-.792.09-.498.06-.99.14-1.48.232-.145.028-.29.05-.437.083-3.682.775-7.07 2.433-9.907 4.793l-.177.15c-.48.41-.944.836-1.39 1.283-.074.074-.15.145-.224.22-.488.503-.958 1.024-1.4 1.572-.035.044-.067.09-.102.136-.382.482-.743.98-1.087 1.496-.115.172-.225.348-.336.524-.265.42-.516.85-.756 1.288-.098.18-.2.358-.293.542-.312.61-.607 1.233-.868 1.88-2.3 5.695-2.246 11.947.154 17.602 2.005 4.722 5.46 8.537 9.856 11.013l-3.962 9.807-1.108-2.61c-.216-.51-.803-.746-1.31-.53L1.63 51.235c-.508.216-.745.803-.53 1.31l5.11 12.036 12.04-5.105c.507-.216.745-.803.53-1.31l-1.563-3.684c-.216-.507-.803-.744-1.312-.53l-2.61 1.108 3.962-9.806c1.877.488 3.797.758 5.746.758 1.088 0 2.16-.083 3.214-.23-.83-1.837-1.44-3.79-1.805-5.83-.466.037-.935.06-1.41.06M49.018 18.54c.542 0 1.075.032 1.604.082.33-1.77.85-3.52 1.57-5.218.09-.206.2-.398.292-.602-1.13-.17-2.288-.26-3.466-.26-1.092 0-2.165.08-3.216.228.836 1.863 1.445 3.824 1.81 5.842.464-.038.93-.07 1.406-.07"/><path d="M72.018 35.54c0-7.947-4.053-14.965-10.2-19.098-.144.287-.293.57-.42.87-.748 1.76-1.136 3.61-1.185 5.468 3.55 3.118 5.805 7.676 5.805 12.76 0 9.375-7.626 17-17 17-9.374 0-17-7.625-17-17 0-5.17 2.328-9.8 5.983-12.922-.06-2.205-.615-4.353-1.586-6.302C30.16 20.432 26.018 27.51 26.018 35.54c0 11.666 8.73 21.324 20 22.8v2.2h-3c-.552 0-1 .45-1 1v4c0 .553.448 1 1 1h3v5.76l-2.005-2.005c-.39-.39-1.023-.39-1.414 0l-2.83 2.828c-.39.39-.39 1.024 0 1.415l9.245 9.245 1.243-1.242h.005l8.003-8.002c.39-.39.39-1.024 0-1.414l-1.38-1.38-1.448-1.45c-.39-.39-1.024-.39-1.414 0L52.018 72.3v-5.76h3c.552 0 1-.447 1-1v-4c0-.55-.448-1-1-1h-3v-2.2c11.27-1.476 20-11.134 20-22.8"/></g></svg>
