<svg width="52" height="97" viewBox="0 0 52 97" xmlns="http://www.w3.org/2000/svg"><title>cuffs</title><path d="M39.372 71.114l-.83-4.272c-.23-1.182-1.188-2.085-2.38-2.245-3.78-.508-6.81-3.366-7.537-7.113-.935-4.808 2.217-9.48 7.026-10.415 4.81-.935 9.48 2.216 10.416 7.024.728 3.747-1.01 7.53-4.322 9.418-1.047.595-1.596 1.792-1.367 2.974l.83 4.27-1.835.358zM31.877 32.56l-.534-2.754c.086.447.478.758.916.758.058 0 .118-.006.18-.018.506-.1.837-.59.738-1.097l.536 2.754v.002-.003c-.1-.506-.588-.838-1.097-.74-.507.1-.838.59-.74 1.097v0zm-2.32-11.932v-.004l.002.004c.085.446.477.756.915.756.06 0 .12-.005.18-.017.507-.098.838-.59.74-1.096l.535 2.754v.004-.004c-.1-.506-.588-.837-1.097-.74-.507.1-.838.59-.74 1.097l-.535-2.752zm-3.173-5.666c-.878 0-1.715-.177-2.48-.492l.05-.267c.1-.507-.232-.998-.74-1.097-.375-.07-.743.094-.948.39-1.48-1.2-2.428-3.03-2.428-5.08 0-3.61 2.937-6.546 6.546-6.546 3.61 0 6.546 2.936 6.546 6.546 0 2.218-1.112 4.18-2.805 5.364-.127-.47-.59-.77-1.076-.675-.508.1-.84.59-.74 1.097l.085.44c-.634.206-1.31.32-2.01.32zm-4.213 8.42v.002c.1-.508-.232-1-.74-1.098-.503-.096-.997.233-1.096.74l.536-2.754c-.1.507.232.998.74 1.096.06.012.12.018.18.018.437 0 .83-.31.915-.757l-.534 2.753zm-1.248 6.426l-.536 2.754c.1-.507-.232-.998-.74-1.096-.504-.097-.997.233-1.095.74v-.001l.535-2.75c-.096.506.234.994.74 1.093.06.012.12.018.18.018.438 0 .83-.31.916-.758l.002-.003v.003zm-2.32 11.935c.098-.508-.232-1-.74-1.098-.506-.097-.997.233-1.096.74v.003-.003l.535-2.754h.002c-.1.508.232 1 .74 1.098.06.01.12.017.178.017.44 0 .83-.31.917-.756l-.535 2.75v.003zm-1.25 6.424l-.534 2.754c.098-.506-.233-.997-.74-1.096-.505-.097-.998.233-1.096.74v0l.535-2.754c-.1.507.232.998.74 1.096.06.012.12.018.18.018.437 0 .83-.31.916-.757v-.002.002zm6.026 27.11c0 3.816-2.427 7.2-6.04 8.42-1.14.385-1.908 1.454-1.908 2.658v4.352h-1.87v-4.352c0-1.204-.77-2.273-1.91-2.658-3.612-1.22-6.04-4.604-6.04-8.42 0-4.9 3.986-8.884 8.885-8.884 4.898 0 8.883 3.985 8.883 8.884zm27.01-6.305l-.92.18-.178-.92-1.835.358.178.918-.918.178-.475-2.446c4.272-3.315 6.388-8.79 5.334-14.216-1.342-6.903-7.406-11.712-14.188-11.728l-.573-2.948c-.233-1.197-1.196-2.06-2.338-2.23l-.26-1.33c.993-.587 1.567-1.746 1.335-2.94l-.536-2.755c-.23-1.178-1.182-2.06-2.34-2.234l-.242-1.25c.992-.59 1.565-1.748 1.333-2.943l-.535-2.753c-.23-1.178-1.182-2.06-2.34-2.235l-.376-1.936C33.07 14.3 34.8 11.562 34.8 8.416 34.8 3.768 31.032 0 26.384 0c-4.648 0-8.416 3.768-8.416 8.416 0 2.957 1.528 5.553 3.835 7.054l-.43 2.21c-1.157.174-2.11 1.057-2.34 2.235L18.5 22.67c-.144.735.008 1.482.427 2.103.237.352.55.63.905.84l-.243 1.248c-1.158.174-2.112 1.057-2.34 2.234l-.535 2.754c-.233 1.195.34 2.354 1.333 2.942l-.243 1.25c-1.157.173-2.11 1.056-2.34 2.234l-.535 2.754c-.232 1.195.34 2.354 1.334 2.94l-.244 1.25c-1.157.175-2.11 1.057-2.34 2.235l-.534 2.754c-.233 1.195.34 2.354 1.333 2.942l-.402 2.064c-1.35.202-2.39 1.357-2.39 2.763v3.08C5.036 62.367 0 68.245 0 75.277c0 5.527 3.122 10.5 7.95 12.937v2.493h-.937v-.936h-1.87v.937h-.935c-.516 0-.935.418-.935.935 0 .517.42.935.935.935h.934v.935h1.87v-.935h.937v.935c0 1.55 1.255 2.805 2.804 2.805 1.55 0 2.805-1.256 2.805-2.805v-.935h1.87v.935c0 1.55 1.256 2.805 2.805 2.805 1.55 0 2.805-1.256 2.805-2.805v-.935h.936v1.87c1.55 0 2.805-1.256 2.805-2.805 0-1.55-1.255-2.805-2.804-2.805v1.87h-.936v-2.493c4.827-2.438 7.95-7.41 7.95-12.937 0-7.032-5.036-12.91-11.69-14.22v-3.08c0-1.03-.56-1.92-1.386-2.407l.4-2.06c1.157-.17 2.11-1.055 2.34-2.232l.535-2.754c.142-.735-.01-1.483-.43-2.104-.237-.352-.55-.63-.905-.84l.243-1.248c1.158-.173 2.11-1.056 2.34-2.234l.535-2.754c.143-.735-.01-1.482-.428-2.104-.237-.35-.55-.63-.905-.84l.243-1.247c1.157-.174 2.11-1.057 2.34-2.234l.534-2.755c.233-1.195-.34-2.354-1.333-2.942l.243-1.25c1.157-.173 2.11-1.055 2.34-2.234l.534-2.754c.234-1.195-.34-2.354-1.332-2.942l.333-1.715c.89.32 1.845.502 2.844.502.823 0 1.617-.124 2.37-.344l.302 1.554c-.993.588-1.566 1.747-1.333 2.943l.535 2.753c.23 1.178 1.18 2.06 2.34 2.233l.242 1.25c-.356.21-.668.488-.906.84-.418.62-.57 1.368-.427 2.103l.535 2.754c.23 1.178 1.182 2.06 2.34 2.234l.257 1.327c-.994.587-1.567 1.744-1.334 2.942l.573 2.946c-6.283 2.557-10.104 9.286-8.762 16.19 1.054 5.426 5.067 9.71 10.27 11.182l.476 2.446-.918.18-.357-1.837c-1.522.296-2.515 1.768-2.22 3.29.296 1.52 1.77 2.513 3.29 2.218l-.357-1.836.918-.18.18.918c.26 1.34 1.434 2.27 2.75 2.27.178 0 .358-.016.54-.052 1.52-.295 2.513-1.768 2.217-3.29l-.178-.916 1.835-.357.178.918c.26 1.34 1.435 2.27 2.75 2.27.178 0 .358-.015.54-.05 1.52-.296 2.513-1.768 2.217-3.29l-.178-.917.918-.18.208 1.07 1.836-.357-.208-1.07.918-.177c.507-.1.838-.59.74-1.098-.1-.506-.59-.84-1.097-.74z" fill="#1D1C1A" fill-rule="evenodd"/></svg>
