<svg width="88" height="100" viewBox="0 0 88 100" xmlns="http://www.w3.org/2000/svg"><title>gun</title><g fill="#020303" fill-rule="evenodd"><path d="M10.663 1.74L9.215.294c-.39-.39-1.024-.39-1.415 0L2.87 5.225l1.878 1.88L6.784 9.14l4.018-5.956c.305-.452.247-1.057-.14-1.443"/><path d="M52.152 70.085c-.16-.16-.225-.328-.206-.528.023-.234.165-.498.39-.722l5.647-5.647 5.757 5.757-5.265 3.552c-.458.308-.58.93-.27 1.388.193.286.51.44.83.44.192 0 .387-.055.558-.17l5.588-3.77 1.093 1.093-5.13 7.6-8.99-8.993zm-33.61.81l-.27-2.072c11.284-1.64 22.278-7.01 30.463-14.883l1.48 1.48c-8.5 8.19-19.942 13.778-31.674 15.474zm24.578-22.57l1.446 1.445c-7.282 6.97-17.037 11.73-27.05 13.213l-.26-2.01C26.83 59.55 36.15 54.988 43.12 48.326zm4.21 4.208C39.45 60.1 28.87 65.257 18.014 66.84l-.242-1.874c10.443-1.54 20.61-6.51 28.2-13.788l1.356 1.355zM21.295 18.015l.012-.008-4.367-4.367c-.337-.338-.868-.39-1.265-.122l-1.862 1.256-12.4-12.397L0 3.79l12.156 12.157c-.37.383-.4.992-.007 1.387l3.367 3.37c.016.017.022.04.04.058l26.156 26.155C34.81 53.5 25.5 57.932 16.01 59.126c-.263.032-.503.17-.665.38-.163.21-.235.475-.2.74l1.542 11.9c.065.504.495.873.99.873.042 0 .084-.004.126-.01 12.508-1.572 24.77-7.458 33.818-16.185l4.95 4.948-5.648 5.646c-.555.555-.898 1.245-.966 1.942-.078.796.2 1.555.782 2.137l9.267 9.266-9.097 13.477c-.326.484-.3 1.168.112 1.58l3.414 3.414c.54.54 1.48.418 1.908-.218l15.1-22.373 7.047 7.046c.39.392 1.023.392 1.413 0l2.83-2.828c.39-.39.39-1.023 0-1.413L21.295 18.015zM87.513 72.92l-6.816-6.817-39.135-39.135c-.34-.34-.87-.39-1.266-.122l-3.38 2.28c-.52.35-.59 1.09-.146 1.535l12.158 12.16L83.82 77.71c.445.446 1.185.375 1.536-.146l2.28-3.38c.267-.395.215-.927-.123-1.265"/></g></svg>
