<svg width="38" height="100" viewBox="0 0 38 100" xmlns="http://www.w3.org/2000/svg"><title>noose</title><g fill="#020303" fill-rule="evenodd"><path d="M16.145 26.248l4.817-.925c.348-.067.632-.41.632-.764V1c0-.627-.57-1.1-1.187-.982l-4 .76c-.472.09-.813.503-.813.983v24.033c0 .31.248.513.55.455M28.398 56.48c-.877-1.29-1.723-2.535-2.502-3.773-.218-.346-.62-.522-1.02-.444l-4.583.89c-.447.088-.683.593-.455.987 1.134 1.965 2.393 3.838 3.65 5.682 3.885 5.71 7.9 11.61 8.094 20.587.155 7.216-5.548 13.477-12.767 13.508-7.1.03-12.886-5.737-12.886-12.83 0-9.296 4.123-15.392 8.112-21.288 1.087-1.608 2.18-3.236 3.19-4.926.294-.49-.142-1.098-.704-.99l-5.712 1.112c-.516.1-.967.398-1.26.834-.144.213-.29.426-.435.642C5.024 62.53.4 69.362.016 79.688-.395 90.593 8.087 99.995 19 99.858c10.24-.13 18.53-8.5 18.53-18.77 0-11.19-4.852-18.32-9.132-24.608M11.024 54.105c.062 0 .126-.006.19-.02l14.867-2.888c.537-.105.888-.624.784-1.16-.104-.537-.623-.89-1.16-.784l-14.868 2.89c-.537.105-.887.624-.783 1.16.092.473.507.802.97.802M11.024 51.135c.062 0 .126-.006.19-.02l14.867-2.888c.537-.105.888-.624.784-1.16-.104-.537-.623-.89-1.16-.784l-14.868 2.89c-.537.104-.887.624-.783 1.16.092.473.507.802.97.802M11.024 48.165c.062 0 .126-.006.19-.02l14.867-2.888c.537-.105.888-.624.784-1.16-.104-.537-.623-.892-1.16-.784l-14.868 2.89c-.537.104-.887.624-.783 1.16.092.473.507.802.97.802M11.024 45.195c.062 0 .126-.006.19-.02l14.867-2.888c.537-.105.888-.624.784-1.16-.104-.537-.623-.89-1.16-.784l-14.868 2.89c-.537.104-.887.624-.783 1.16.092.473.507.802.97.802M11.024 42.224c.062 0 .126-.005.19-.018l14.867-2.89c.537-.105.888-.623.784-1.16-.104-.536-.623-.892-1.16-.783l-14.868 2.89c-.537.104-.887.623-.783 1.16.092.472.507.8.97.8M11.024 39.254c.062 0 .126-.005.19-.018l14.867-2.89c.537-.104.888-.624.784-1.16-.104-.537-.623-.89-1.16-.784l-14.868 2.89c-.537.105-.887.624-.783 1.16.092.474.507.802.97.802M11.024 36.284c.062 0 .126-.005.19-.018l14.867-2.89c.537-.104.888-.624.784-1.16-.104-.537-.623-.89-1.16-.784l-14.868 2.89c-.537.105-.887.624-.783 1.16.092.474.507.802.97.802M11.024 33.313c.062 0 .126-.006.19-.018l14.867-2.89c.537-.104.888-.624.784-1.16-.104-.537-.623-.89-1.16-.784l-14.868 2.89c-.537.106-.887.625-.783 1.162.092.473.507.8.97.8M11.024 30.343c.062 0 .126-.006.19-.018l14.867-2.89c.537-.104.888-.624.784-1.16-.104-.537-.623-.89-1.16-.784l-14.868 2.89c-.537.106-.887.625-.783 1.162.092.472.507.8.97.8"/></g></svg>
