<svg width="89" height="100" viewBox="0 0 89 100" xmlns="http://www.w3.org/2000/svg" xmlns:xlink="http://www.w3.org/1999/xlink"><title>hand</title><defs><path id="a" d="M.03.238h16v40.01h-16V.238z"/><path id="c" d="M16.71.384v29.198H.02V.384h16.69z"/></defs><g fill="none" fill-rule="evenodd"><g transform="translate(37 -.238)"><mask id="b" fill="#fff"><use xlink:href="#a"/></mask><path d="M13.03 40.248c-1.656 0-3-1.344-3-3V8.288c0-1.11-.907-2.05-1.98-2.05-1.095 0-2.02.922-2.02 2.015V20.08c0 1.657-1.342 3-3 3-1.656 0-3-1.343-3-3V8.254C.03 3.833 3.63.238 8.05.238c4.4 0 7.98 3.61 7.98 8.05v28.96c0 1.656-1.342 3-3 3" fill="#020303" mask="url(#b)"/></g><path d="M65.667 43.843c-.19 0-.383-.018-.576-.056-1.625-.316-2.687-1.89-2.37-3.517l4.75-24.416c.078-.404-.006-.817-.237-1.165-.13-.196-.42-.536-.926-.635-.53-.104-.935.104-1.133.238-.196.133-.542.434-.644.958l-2.05 10.526c-.318 1.627-1.887 2.687-3.52 2.37-1.626-.316-2.688-1.892-2.37-3.518l2.05-10.523c.38-1.962 1.51-3.662 3.18-4.787 1.67-1.124 3.67-1.535 5.63-1.153 1.97.383 3.67 1.524 4.788 3.214 1.103 1.667 1.5 3.663 1.12 5.62l-4.75 24.415c-.278 1.434-1.534 2.428-2.94 2.428M26.556 48.99c-1.41 0-2.668-1-2.943-2.437L18.46 19.678c-.38-1.956.03-3.956 1.157-5.625 1.126-1.668 2.826-2.795 4.79-3.177 1.967-.383 3.97.04 5.64 1.187 1.648 1.133 2.764 2.835 3.145 4.79l4.06 20.746c.32 1.625-.74 3.2-2.367 3.52-1.63.32-3.202-.74-3.52-2.367l-4.063-20.75c-.08-.407-.31-.76-.656-.997-.192-.13-.584-.338-1.096-.24-.526.103-.827.45-.96.646s-.34.604-.238 1.13l5.153 26.883c.312 1.627-.754 3.2-2.382 3.51-.19.036-.38.054-.567.054" fill="#020303"/><g transform="translate(72 20.762)"><mask id="d" fill="#fff"><use xlink:href="#c"/></mask><path d="M6.246 29.582c-.376 0-.757-.07-1.127-.222-1.536-.622-2.275-2.372-1.653-3.907l7.167-17.667c.206-.51-.04-1.132-.527-1.328-.51-.207-1.114.05-1.32.558l-2.98 7.468c-.614 1.54-2.357 2.29-3.898 1.675-1.54-.615-2.29-2.36-1.675-3.9L3.22 4.78C4.675 1.184 8.768-.554 12.356.895c3.57 1.442 5.294 5.544 3.84 9.143l-7.168 17.67c-.473 1.166-1.595 1.873-2.78 1.874" fill="#020303" mask="url(#d)"/></g><path d="M60.412 99.762h-26.26c-3.755 0-7.287-1.99-9.234-5.198l-23.14-35.33c-.906-1.385-.518-3.245.867-4.153 1.386-.908 3.246-.518 4.154.868l23.168 35.375c.022.034.044.068.064.103.862 1.44 2.442 2.336 4.12 2.336h26.26c2.294 0 4.276-1.634 4.714-3.886L71.2 58.633c-10.532-9.472-26.445-10.073-37.654-1.21-1.3 1.028-3.186.808-4.214-.49-1.027-1.3-.807-3.188.493-4.215C43.833 41.64 63.933 42.824 76.58 55.47c.704.705 1.013 1.714.823 2.693L71.016 91.02c-.985 5.066-5.445 8.742-10.604 8.742" fill="#020303"/><path d="M15.234 77.372c-.982 0-1.944-.48-2.52-1.366L1.29 58.41c-2.404-3.7-1.35-8.665 2.35-11.067 3.7-2.404 8.664-1.348 11.067 2.352l6.113 9.414c.902 1.39.508 3.247-.882 4.15-1.39.903-3.247.507-4.15-.883l-6.113-9.414c-.6-.926-1.84-1.188-2.767-.588-.925.6-1.19 1.842-.588 2.767l11.427 17.596c.902 1.39.508 3.247-.882 4.15-.505.328-1.07.484-1.63.484M64.21 65.415c-6.722 0-13.406-4.01-17.07-10.543-.27-.482-.1-1.092.383-1.36.484-.273 1.09-.1 1.36.382 3.867 6.894 11.41 10.68 18.346 9.207.537-.117 1.07.23 1.185.77.114.54-.23 1.07-.77 1.187-1.136.24-2.287.358-3.434.358" fill="#020303"/><path d="M33.278 67.65c11.7 0 21.186 9.485 21.186 21.186" stroke="#020303" stroke-width="2" stroke-linecap="round"/></g></svg>
